<?xml version="1.0" standalone="no"?>
<!DOCTYPE svg PUBLIC "-//W3C//DTD SVG 20010904//EN"
 "http://www.w3.org/TR/2001/REC-SVG-20010904/DTD/svg10.dtd">
<svg version="1.0" xmlns="http://www.w3.org/2000/svg"
 width="16.000000pt" height="16.000000pt" viewBox="0 0 16.000000 16.000000"
 preserveAspectRatio="xMidYMid meet">
<metadata>
Created by potrace 1.11, written by Peter Selinger 2001-2013
</metadata>
<g transform="translate(0.000000,16.000000) scale(0.006154,-0.006154)"
fill="#000000" stroke="none">
<path d="M4 2582 c6 -18 147 -543 202 -752 86 -326 99 -370 109 -370 5 0 74
17 153 37 157 41 152 36 127 119 -8 27 -28 101 -44 164 -62 236 -90 340 -96
350 -8 13 21 13 65 -1 19 -5 42 -12 50 -14 8 -2 60 -15 115 -30 414 -113 378
-109 393 -48 7 26 23 90 37 142 14 51 25 99 25 105 0 8 -50 26 -122 44 -68 18
-181 48 -253 67 -71 20 -137 37 -145 39 -8 2 -141 38 -295 79 -358 95 -327 89
-321 69z"/>
<path d="M1416 2068 c-21 -79 -40 -148 -43 -154 -3 -10 70 -35 167 -59 18 -4
259 -69 355 -95 39 -11 74 -20 80 -20 5 0 -91 -101 -215 -225 l-225 -225 110
-110 c60 -61 114 -109 118 -107 5 1 195 189 423 417 l414 414 -288 77 c-158
42 -294 79 -302 83 -8 3 -26 8 -40 10 -14 3 -135 34 -269 70 -134 37 -244 66
-245 66 -1 0 -19 -64 -40 -142z"/>
<path d="M1011 1729 c-18 -6 -54 -31 -81 -58 -80 -80 -91 -193 -27 -288 85
-126 281 -129 369 -4 80 113 41 273 -82 336 -41 21 -132 28 -179 14z"/>
<path d="M545 1188 c-82 -22 -151 -41 -153 -43 -2 -2 35 -143 104 -393 14 -51
28 -103 30 -115 2 -12 42 -160 87 -329 l83 -308 414 414 c228 228 416 418 417
423 2 4 -46 58 -107 118 l-110 110 -223 -223 -224 -224 -48 179 c-26 98 -57
210 -67 248 -11 39 -21 77 -23 85 -7 34 -26 100 -28 99 -1 0 -69 -18 -152 -41z"/>
</g>
</svg>
