<?xml version="1.0" encoding="utf-8"?>
<!-- Generator: Adobe Illustrator 18.0.0, SVG Export Plug-In . SVG Version: 6.00 Build 0)  -->
<!DOCTYPE svg PUBLIC "-//W3C//DTD SVG 1.1//EN" "http://www.w3.org/Graphics/SVG/1.1/DTD/svg11.dtd">
<svg version="1.1" id="Layer_1" xmlns="http://www.w3.org/2000/svg" xmlns:xlink="http://www.w3.org/1999/xlink" x="0px" y="0px"
	 viewBox="0 336.2 614.7 119.7" enable-background="new 0 336.2 614.7 119.7" xml:space="preserve">
<g id="mockup" display="none">
	<polygon display="inline" points="-27.9,313.7 -15.3,363.2 19.3,333.3 	"/>
	<polygon display="inline" fill="#FFFFFF" points="-17.6,325.6 -11.2,350.9 6.5,335.6 	"/>
	
		<rect x="-20.2" y="335" transform="matrix(0.2235 0.9747 -0.9747 0.2235 318.6554 280.5389)" display="inline" fill="#FFFFFF" width="7" height="10.6"/>
	
		<rect x="-6.1" y="321.7" transform="matrix(0.9289 0.3702 -0.3702 0.9289 120.8774 24.2075)" display="inline" fill="#FFFFFF" width="7" height="10.6"/>
	
		<rect x="-3.9" y="340.2" transform="matrix(0.7522 -0.6589 0.6589 0.7522 -227.7446 85.3488)" display="inline" fill="#FFFFFF" width="7" height="10.6"/>
</g>
<g id="combined">
	<g id="spin">
		<g>
			<g>
				<polygon points="20.8,357 48.9,364.5 52.7,350.3 0,336.2 14.1,388.9 28.4,385.1 				"/>
				<polygon points="91.2,375.9 70.7,396.4 81.1,406.8 119.7,368.2 67,354.1 63.1,368.3 				"/>
				<polygon points="39.7,427.4 32.2,399.3 17.9,403.1 32.1,455.8 70.7,417.2 60.2,406.8 				"/>
			</g>
			<circle cx="50.1" cy="386.2" r="10.5"/>
		</g>
	</g>
	<g>
		<path d="M212,384c0-18-9.6-27-28.7-27h-32.1v84.7h13.7v-30.2h19.9l12.2,30.2h15.1l-14-33.3C207.4,404.2,212,396.1,212,384z
			 M194.5,395.5c-2.3,2.8-5.9,4.3-10.9,4.3h-18.7v-30.8h18.4c9.7,0,14.6,5.1,14.6,15.2C197.9,388.8,196.8,392.6,194.5,395.5z"/>
		<path d="M243,378.6c-17.9,0-26.8,11-26.8,32.9c0,11,2,19.1,6,24.1c4,5,10.6,7.5,19.7,7.5c7.2,0,15.6-0.9,25-2.8l-0.2-10l-3.5,0.4
			c-6.2,0.5-12.2,0.7-18,0.7c-5.9,0-9.9-1.2-12-3.6c-2.1-2.4-3.3-6.1-3.3-11.3h38.3l0.9-9.6C269,388,260.3,378.6,243,378.6z
			 M255.7,406.2h-26.1c0.1-5.9,1.2-10.1,3.3-12.6s5.5-3.8,10.1-3.8s7.9,1.2,9.8,3.6C254.8,395.8,255.7,400.1,255.7,406.2
			L255.7,406.2z"/>
		<path d="M286.2,357.8c-2.6,3.3-3.8,9.4-3.8,18.2v4h-7.2v11.5h7.2v50.3h13.4v-50.3H312v-11.5h-16.3v-3.8c0-4.3,0.5-7.2,1.6-8.8
			c1.1-1.6,2.9-2.4,5.6-2.4c2.7,0,6,0.1,10.1,0.2l0.1-11l-13.4-1.2C293.3,352.9,288.7,354.5,286.2,357.8z"/>
		<path d="M334,379.9h-13.4v61.8h13.5v-43.1l2.7-1.1c5-2.2,11.1-4,18.2-5.4v-13.5c-7,1.3-14,4.2-21,8.8V379.9z"/>
		<path d="M409.4,427.2V399c0-7.1-1.7-12.3-5-15.5c-3.3-3.3-8.8-4.9-16.3-4.9s-15.8,1.1-24.8,3.2l0.5,9.5l4-0.2
			c7.9-0.7,14.5-1,19.8-1c2.8,0,4.9,0.7,6.4,2c1.4,1.3,2.2,3.6,2.2,6.9v4.5l-15.9,1.4c-6.9,0.6-12.1,2.3-15.4,5.1s-5,7.3-5,13.6
			c0,13.1,6.1,19.7,18.4,19.7c6.7,0,13.3-1.5,19.9-4.6c3.9,3.1,9.3,4.6,16.4,4.6l0.4-10.3c-1.8-0.2-3.2-0.8-4-1.7
			S409.5,429,409.4,427.2z M396,429.4l-2.2,0.7c-4.6,1.3-9,2-13.1,2c-5,0-7.5-2.8-7.5-8.5c0-5.7,2.8-8.8,8.5-9.3L396,413V429.4z"/>
		<path d="M449.7,390.6c3.1,0,8,0.3,14.5,1l0.5-10.6l-3.1-0.6c-5.9-1.1-11.1-1.7-15.5-1.7c-9.2,0-15.7,2.5-19.8,7.4
			c-4,4.9-6.1,13.1-6.1,24.7c0,11.5,1.9,19.8,5.7,24.9c3.8,5.1,10.4,7.6,19.8,7.6c4.2,0,10.5-0.7,18.8-2.2l-0.4-10.8l-14.5,1
			c-6.5,0-10.8-1.5-12.9-4.5c-2.1-3-3.1-8.3-3.1-16.1s1.1-13,3.2-15.8C439.2,392,443.4,390.6,449.7,390.6z"/>
		<path d="M500.7,431.1c-3.1,0-4.9-0.8-5.7-2.5c-0.7-1.6-1.1-5-1.1-10v-27.2H511V380h-17.1V362h-13.4v17.9h-7.9v11.5h7.9v28.7
			c0,8.9,1.3,15,3.9,18.2c2.6,3.2,7.4,4.8,14.4,4.8c2.9,0,7.1-0.5,12.6-1.6l-0.6-10.8L500.7,431.1z"/>
		<path d="M543.4,378.6c-17.9,0-26.8,11-26.8,32.9c0,11,2,19.1,6,24.1c4,5,10.6,7.5,19.7,7.5c7.2,0,15.6-0.9,25-2.8l-0.2-10
			l-3.5,0.4c-6.2,0.5-12.2,0.7-18,0.7c-5.9,0-9.9-1.2-12-3.6c-2.1-2.4-3.3-6.1-3.3-11.3h38.3l0.9-9.6
			C569.4,388,560.7,378.6,543.4,378.6z M556.1,406.2H530c0.1-5.9,1.2-10.1,3.3-12.6c2.1-2.6,5.5-3.8,10.1-3.8s7.9,1.2,9.8,3.6
			C555.1,395.8,556.1,400.1,556.1,406.2L556.1,406.2z"/>
		<path d="M590.7,387.4v-7.4h-13.4v61.8h13.5v-43.1l2.7-1.1c5-2.2,11.1-4,18.2-5.4v-13.5C604.7,379.9,597.7,382.8,590.7,387.4z"/>
	</g>
</g>
</svg>
