<?xml version="1.0" encoding="utf-8"?>
<!-- Generator: Adobe Illustrator 18.0.0, SVG Export Plug-In . SVG Version: 6.00 Build 0)  -->
<!DOCTYPE svg PUBLIC "-//W3C//DTD SVG 1.1//EN" "http://www.w3.org/Graphics/SVG/1.1/DTD/svg11.dtd">
<svg version="1.1" id="Layer_1" xmlns="http://www.w3.org/2000/svg" xmlns:xlink="http://www.w3.org/1999/xlink" x="0px" y="0px"
	 viewBox="6 96 600 600" enable-background="new 6 96 600 600" xml:space="preserve">
<g id="full" display="none">
	<g display="inline">
		<g>
			<g>
				<path d="M157.1,423.9v30.2h-13.7v-84.8h32.2c19.1,0,28.7,9,28.7,27c0,12-4.6,20.2-13.9,24.5l14,33.3h-15.1L177,423.9H157.1
					L157.1,423.9z M190.2,396.5c0-10.1-4.9-15.2-14.6-15.2h-18.4V412h18.7c5,0,8.6-1.4,10.9-4.3C189,404.9,190.2,401.1,190.2,396.5z
					"/>
				<path d="M205,454.5h-16l-12.3-30.2h-19.2v30.2h-14.6v-85.6h32.6c19.3,0,29.1,9.2,29.1,27.4c0,12-4.6,20.3-13.7,24.7L205,454.5z
					 M189.6,453.7h14.2l-13.9-33.1l0.4-0.2c9-4.2,13.6-12.3,13.6-24.1c0-8.8-2.4-15.5-7-19.9c-4.7-4.4-11.8-6.6-21.2-6.6h-31.7v83.9
					h12.9v-30.2h20.6L189.6,453.7z M175.8,412.5h-19.1v-31.7h18.9c10,0,15,5.3,15,15.6c0,4.8-1.2,8.7-3.5,11.6
					C184.6,411,180.9,412.5,175.8,412.5z M157.6,411.6h18.3c4.8,0,8.3-1.4,10.5-4.1c2.2-2.8,3.4-6.5,3.4-11.1
					c0-9.9-4.6-14.8-14.2-14.8h-18L157.6,411.6L157.6,411.6z"/>
			</g>
			<g>
				<path d="M255.4,443l3.5-0.4l0.3,10c-9.4,1.9-17.7,2.8-25,2.8c-9.2,0-15.7-2.5-19.7-7.6c-4-5-6-13.1-6-24.1
					c0-21.9,8.9-32.9,26.9-32.9c17.3,0,26,9.5,26,28.3l-0.9,9.6H222c0.1,5.1,1.2,8.9,3.3,11.3c2.2,2.4,6.1,3.6,12,3.6
					C243.2,443.7,249.2,443.4,255.4,443z M248,418.5c0-6.1-0.9-10.4-2.9-12.8c-1.9-2.4-5.2-3.7-9.8-3.7c-4.6,0-8,1.3-10.1,3.8
					c-2.1,2.5-3.2,6.8-3.3,12.6L248,418.5L248,418.5z"/>
				<path d="M234.1,455.9c-9.2,0-16-2.6-20.1-7.7c-4.1-5.1-6.1-13.3-6.1-24.4c0-22.1,9.2-33.3,27.3-33.3c17.5,0,26.4,9.7,26.4,28.8
					l-0.9,10.1h-38.3c0.1,4.7,1.2,8.3,3.2,10.5c2,2.3,6,3.5,11.7,3.5c5.8,0,11.9-0.3,18-0.7l3.9-0.4l0.3,10.8l-0.3,0.1
					C249.8,454.9,241.4,455.9,234.1,455.9z M235.2,391.3c-8.8,0-15.4,2.7-19.8,8.1c-4.4,5.4-6.6,13.6-6.6,24.4
					c0,10.9,2,18.9,5.9,23.8c3.9,4.9,10.4,7.4,19.4,7.4c7.1,0,15.4-0.9,24.5-2.8l-0.2-9.2l-3,0.3c-6.2,0.5-12.3,0.7-18.1,0.7
					c-6,0-10.1-1.3-12.3-3.7c-2.2-2.5-3.4-6.3-3.5-11.5v-0.4h38.3l0.8-9.2c0-9.2-2.2-16.3-6.4-20.9
					C250.2,393.6,243.8,391.3,235.2,391.3z M248.4,418.9h-27v-0.4c0.1-5.9,1.2-10.3,3.4-12.9c2.2-2.6,5.7-4,10.4-4
					c4.7,0,8.2,1.3,10.2,3.8c2,2.5,3,6.9,3,13.1L248.4,418.9L248.4,418.9z M222.3,418h25.2c0-5.7-1-9.8-2.8-12.1
					c-1.9-2.3-5.1-3.5-9.5-3.5c-4.4,0-7.7,1.3-9.8,3.7C223.5,408.5,222.5,412.5,222.3,418z"/>
			</g>
			<g>
				<path d="M287.9,403.8v50.3h-13.3v-50.3h-7.2v-11.5h7.2v-4c0-8.8,1.3-14.9,3.8-18.2c2.5-3.3,7.1-5,13.6-5l13.3,1.3l-0.1,11
					c-4.1-0.2-7.4-0.3-10.1-0.3c-2.7,0-4.6,0.8-5.6,2.4c-1.1,1.6-1.6,4.6-1.6,8.9v3.8h16.3v11.5L287.9,403.8L287.9,403.8z"/>
				<path d="M288.4,454.5h-14.2v-50.3H267v-12.3h7.2v-3.5c0-8.9,1.3-15.1,3.9-18.4c2.6-3.4,7.3-5.1,13.9-5.1l13.8,1.3l-0.1,11.8
					h-0.4c-4-0.2-7.4-0.3-10.1-0.3c-2.5,0-4.3,0.7-5.3,2.2c-1,1.5-1.6,4.4-1.6,8.6v3.4h16.3v12.3h-16.3L288.4,454.5L288.4,454.5z
					 M275,453.7h12.5v-50.3h16.3v-10.6h-16.3v-4.3c0-4.4,0.6-7.4,1.7-9.1c1.2-1.7,3.2-2.6,6-2.6c2.5,0,5.8,0.1,9.7,0.2l0.1-10.1
					l-13-1.2c-6.3,0-10.8,1.6-13.2,4.8c-2.5,3.2-3.8,9.2-3.8,17.9v4.4h-7.2v10.6h7.2L275,453.7L275,453.7z"/>
			</g>
			<g>
				<path d="M312.9,454.1v-61.9h13.3v7.4c7-4.5,14-7.5,21-8.8v13.5c-7.1,1.4-13.2,3.2-18.2,5.4l-2.7,1.1v43.2L312.9,454.1
					L312.9,454.1z"/>
				<path d="M326.8,454.5h-14.3v-62.7h14.2v7.1c6.8-4.3,13.7-7.1,20.5-8.4l0.5-0.1v14.4l-0.3,0.1c-7,1.4-13.1,3.2-18.1,5.4l-2.5,1
					V454.5L326.8,454.5z M313.4,453.7H326v-43.1l3-1.2c4.9-2.2,11-4,17.9-5.4v-12.6c-6.7,1.3-13.6,4.2-20.4,8.6l-0.6,0.4v-7.8h-12.5
					V453.7L313.4,453.7z"/>
			</g>
			<g>
				<path d="M401.7,411.3v28.2c0.1,1.8,0.6,3.2,1.4,4c0.9,0.9,2.2,1.4,4,1.7l-0.4,10.3c-7.1,0-12.6-1.5-16.5-4.6
					c-6.6,3.1-13.3,4.6-19.9,4.6c-12.3,0-18.4-6.6-18.4-19.7c0-6.3,1.7-10.8,5-13.6c3.3-2.8,8.5-4.5,15.4-5.1l16-1.4v-4.4
					c0-3.3-0.7-5.6-2.2-6.9c-1.4-1.3-3.6-2-6.4-2c-5.3,0-11.9,0.3-19.8,1l-4,0.3l-0.5-9.5c9-2.2,17.3-3.2,24.8-3.2
					c7.6,0,13,1.6,16.3,4.9C400.1,399,401.7,404.2,401.7,411.3z M374,426.6c-5.7,0.5-8.5,3.6-8.5,9.3s2.5,8.5,7.6,8.5
					c4.1,0,8.5-0.6,13.1-2l2.2-0.7v-16.5L374,426.6z"/>
				<path d="M407.2,455.9h-0.4c-7,0-12.6-1.5-16.5-4.5c-6.6,3-13.2,4.5-19.9,4.5c-12.5,0-18.9-6.8-18.9-20.1
					c0-6.4,1.7-11.1,5.2-13.9c3.4-2.8,8.7-4.6,15.6-5.2l15.5-1.3v-4c0-3.2-0.7-5.4-2-6.6c-1.3-1.3-3.4-1.9-6.1-1.9
					c-5.2,0-11.9,0.3-19.8,1l-4.4,0.3l-0.5-10.3l0.3-0.1c9-2.2,17.4-3.2,24.9-3.2c7.6,0,13.2,1.7,16.6,5c3.4,3.3,5.1,8.6,5.1,15.8
					v28.2c0.1,1.7,0.5,2.9,1.3,3.7c0.8,0.8,2.1,1.3,3.8,1.6l0.4,0L407.2,455.9z M379.8,401.9c2.9,0,5.1,0.7,6.6,2.1
					c1.5,1.4,2.3,3.8,2.3,7.3v4.8l-16.4,1.4c-6.8,0.6-11.9,2.2-15.2,5s-4.8,7.2-4.8,13.3c0,13,5.9,19.3,18,19.3
					c6.6,0,13.2-1.5,19.7-4.5l0.3-0.1l0.2,0.2c3.7,2.9,9,4.4,15.8,4.5l0.3-9.5c-1.7-0.3-3-0.9-3.9-1.7c-0.9-0.9-1.5-2.4-1.6-4.3
					v-28.2c0-7-1.6-12-4.9-15.2c-3.2-3.2-8.6-4.7-16-4.7s-15.5,1-24.4,3.1l0.4,8.7l3.5-0.2C367.9,402.3,374.5,401.9,379.8,401.9z
					 M373,444.9c-5.3,0-8-3-8-9c0-5.9,3-9.2,8.9-9.7l14.8-1.4V442l-2.5,0.8C381.6,444.2,377.2,444.9,373,444.9z M387.9,425.7
					l-13.9,1.3c-5.5,0.5-8.2,3.4-8.2,8.9c0,5.4,2.3,8.1,7.1,8.1c4.1,0,8.4-0.6,13-1.9l1.9-0.6V425.7L387.9,425.7z"/>
			</g>
			<g>
				<path d="M438.5,390.9c4.4,0,9.5,0.6,15.5,1.7l3.1,0.6l-0.5,10.6c-6.5-0.6-11.4-1-14.5-1c-6.3,0-10.5,1.4-12.6,4.2
					c-2.2,2.8-3.2,8.1-3.2,15.8c0,7.8,1,13.1,3.1,16.1c2.1,3,6.3,4.4,12.9,4.4l14.5-1l0.4,10.8c-8.3,1.5-14.6,2.2-18.8,2.2
					c-9.4,0-16-2.5-19.9-7.6c-3.8-5.1-5.7-13.4-5.7-24.9c0-11.5,2-19.8,6-24.7C422.7,393.3,429.3,390.9,438.5,390.9z"/>
				<path d="M438.2,455.9c-9.5,0-16.3-2.6-20.2-7.8c-3.9-5.1-5.8-13.6-5.8-25.2c0-11.6,2.1-20,6.2-25c4.1-5,10.9-7.5,20.1-7.5
					c4.4,0,9.6,0.6,15.5,1.7l3.5,0.7l-0.5,11.5l-0.5,0c-6.5-0.6-11.3-1-14.4-1c-6.1,0-10.2,1.3-12.3,4c-2.1,2.7-3.1,7.9-3.1,15.6
					c0,7.6,1,13,3,15.8c2,2.8,6.2,4.3,12.5,4.3l14.9-1l0.4,11.6l-0.4,0.1C448.8,455.1,442.4,455.9,438.2,455.9z M438.5,391.3
					c-9,0-15.5,2.4-19.5,7.2c-4,4.8-6,13-6,24.4s1.9,19.7,5.7,24.7c3.7,4.9,10.3,7.4,19.5,7.4c4.1,0,10.3-0.7,18.4-2.2l-0.3-9.9
					l-14,0.9l0,0c-6.6,0-11.1-1.6-13.3-4.6c-2.1-3-3.2-8.5-3.2-16.3c0-7.9,1.1-13.2,3.3-16.1c2.2-2.9,6.6-4.4,13-4.4
					c3.1,0,7.8,0.3,14.1,0.9l0.5-9.8l-2.7-0.6C448,391.9,442.8,391.3,438.5,391.3z"/>
			</g>
			<g>
				<path d="M503.4,403.8h-17.1V431c0,5.1,0.4,8.4,1.1,10c0.7,1.6,2.6,2.5,5.7,2.5l10.1-0.4l0.6,10.8c-5.5,1.1-9.7,1.6-12.6,1.6
					c-7,0-11.8-1.6-14.4-4.8c-2.6-3.2-3.9-9.3-3.9-18.2v-28.7h-7.9v-11.5h7.9v-17.9h13.3v17.9h17.1V403.8L503.4,403.8z"/>
				<path d="M491.3,455.9c-7.1,0-12.1-1.7-14.8-5c-2.6-3.3-4-9.5-4-18.4v-28.3h-7.9v-12.3h7.9v-17.9h14.2v17.9h17.1v12.3h-17.1V431
					c0,5,0.3,8.2,1.1,9.8c0.6,1.5,2.5,2.2,5.3,2.2l10.5-0.4l0.6,11.6l-0.4,0.1C498.4,455.4,494.2,455.9,491.3,455.9z M465.4,403.3
					h7.9v29.1c0,8.8,1.3,14.8,3.8,17.9c2.5,3.1,7.3,4.7,14.1,4.7c2.8,0,6.9-0.5,12.2-1.5l-0.6-10l-9.7,0.3l0,0
					c-3.2,0-5.3-0.9-6.1-2.7c-0.8-1.7-1.2-5.1-1.2-10.2v-27.6h17.1v-10.6h-17.1v-17.9h-12.5v17.9h-7.9L465.4,403.3L465.4,403.3z"/>
			</g>
			<g>
				<path d="M556,443l3.5-0.4l0.3,10c-9.4,1.9-17.7,2.8-25,2.8c-9.2,0-15.7-2.5-19.7-7.6c-4-5-6-13.1-6-24.1
					c0-21.9,8.9-32.9,26.9-32.9c17.3,0,26,9.5,26,28.3l-0.9,9.6h-38.3c0.1,5.1,1.2,8.9,3.3,11.3c2.2,2.4,6.1,3.6,12,3.6
					C543.7,443.7,549.8,443.4,556,443z M548.5,418.5c0-6.1-0.9-10.4-2.9-12.8c-1.9-2.4-5.2-3.7-9.8-3.7c-4.6,0-8,1.3-10.1,3.8
					c-2.1,2.5-3.2,6.8-3.3,12.6L548.5,418.5L548.5,418.5z"/>
				<path d="M534.7,455.9c-9.2,0-16-2.6-20.1-7.7c-4.1-5.1-6.1-13.3-6.1-24.4c0-22.1,9.2-33.3,27.3-33.3c17.5,0,26.4,9.7,26.4,28.8
					l-0.9,10.1H523c0.1,4.7,1.2,8.3,3.2,10.5c2,2.3,6,3.5,11.7,3.5c5.8,0,11.9-0.3,18-0.7l3.9-0.4l0.3,10.8l-0.3,0.1
					C550.4,454.9,541.9,455.9,534.7,455.9z M535.8,391.3c-8.8,0-15.4,2.7-19.8,8.1c-4.4,5.4-6.6,13.6-6.6,24.4
					c0,10.9,2,18.9,5.9,23.8c3.9,4.9,10.4,7.4,19.4,7.4c7.1,0,15.4-0.9,24.5-2.8L559,443l-3,0.3c-6.2,0.5-12.3,0.7-18.1,0.7
					c-6,0-10.1-1.3-12.3-3.7c-2.2-2.5-3.4-6.3-3.5-11.5v-0.4h38.4l0.8-9.2c0-9.2-2.2-16.3-6.4-20.9
					C550.7,393.6,544.3,391.3,535.8,391.3z M549,418.9h-27v-0.4c0.1-5.9,1.2-10.3,3.4-12.9c2.2-2.6,5.7-4,10.4-4
					c4.7,0,8.2,1.3,10.2,3.8c2,2.5,3,6.9,3,13.1L549,418.9L549,418.9z M522.9,418h25.2c0-5.7-1-9.8-2.8-12.1
					c-1.9-2.3-5.1-3.5-9.5-3.5s-7.7,1.3-9.8,3.7C524,408.5,523,412.5,522.9,418z"/>
			</g>
			<g>
				<path d="M569.7,454.1v-61.9h13.3v7.4c7-4.5,14-7.5,21-8.8v13.5c-7.1,1.4-13.2,3.2-18.2,5.4l-2.7,1.1v43.2L569.7,454.1
					L569.7,454.1z"/>
				<path d="M583.6,454.5h-14.3v-62.7h14.2v7.1c6.8-4.3,13.7-7.1,20.5-8.4l0.5-0.1v14.4l-0.3,0.1c-7,1.4-13.1,3.2-18.1,5.4l-2.5,1
					V454.5z M570.2,453.7h12.6v-43.1l3-1.2c4.9-2.2,11-4,17.9-5.4v-12.6c-6.7,1.3-13.6,4.2-20.4,8.6l-0.6,0.4v-7.8h-12.5V453.7
					L570.2,453.7z"/>
			</g>
		</g>
		<g>
			<polygon points="7.9,327.9 19.6,383.6 34.6,380.5 28.4,350.8 57.2,360.3 62,345.7 			"/>
			<polygon points="100.6,374.5 78,394.7 88.3,406.2 130.7,368.2 76.6,350.4 71.8,365.1 			"/>
			<polygon points="22.8,398.7 34.5,454.4 76.9,416.4 66.6,405 44,425.2 37.8,395.5 			"/>
			<circle cx="57.2" cy="382.9" r="10.7"/>
		</g>
	</g>
</g>
<g id="spin">
	<g>
		<g>
			<polygon points="306,236.8 361.9,333.7 411,305.3 306,123.4 201,305.3 250.1,333.7 			"/>
			<polygon points="446.2,479.6 334.3,479.6 334.3,536.3 544.4,536.3 439.4,354.4 390.3,382.8 			"/>
			<polygon points="165.8,479.6 221.7,382.8 172.6,354.4 67.6,536.3 277.7,536.3 277.7,479.6 			"/>
		</g>
		<circle cx="306" cy="396" r="33.6"/>
	</g>
</g>
<g id="Layer_3" display="none">
	<g display="inline">
		<polygon points="14,95.3 69.7,360.2 141.2,345.2 111.5,204.1 248.5,249 271.3,179.6 		"/>
		<polygon points="455,316.7 347.6,412.9 396.4,467.3 598,286.6 340.7,202.3 318,271.8 		"/>
		<polygon points="84.6,431.8 140.3,696.7 341.9,516.1 293.2,461.6 185.8,557.8 156.2,416.7 		"/>
		<circle cx="248.5" cy="357" r="50.8"/>
	</g>
</g>
</svg>
