<?xml version="1.0" encoding="utf-8"?>
<!-- Generator: Adobe Illustrator 18.0.0, SVG Export Plug-In . SVG Version: 6.00 Build 0)  -->
<!DOCTYPE svg PUBLIC "-//W3C//DTD SVG 1.1//EN" "http://www.w3.org/Graphics/SVG/1.1/DTD/svg11.dtd">
<svg version="1.1" xmlns="http://www.w3.org/2000/svg" xmlns:xlink="http://www.w3.org/1999/xlink" x="0px" y="0px"
	 viewBox="0 0 1066.5 1066.5" enable-background="new 0 0 1066.5 1066.5" xml:space="preserve">
<g id="mockup" display="none">
	<polygon display="inline" points="-248.2,-200.3 -136.2,240.8 171.8,-25.2 	"/>
	<polygon display="inline" fill="#FFFFFF" points="-156.7,-94.3 -99.5,131.2 58,-4.8 	"/>
	
		<rect x="-180.3" y="-10.5" transform="matrix(-0.2235 -0.9747 0.9747 -0.2235 -218.2844 -100.5851)" display="inline" fill="#FFFFFF" width="62.3" height="94.3"/>
	
		<rect x="-54.5" y="-128.8" transform="matrix(-0.9289 -0.3702 0.3702 -0.9289 -14.858 -166.0408)" display="inline" fill="#FFFFFF" width="62.3" height="94.3"/>
	
		<rect x="-34.7" y="35.9" transform="matrix(-0.7522 0.6589 -0.6589 -0.7522 48.5709 147.9491)" display="inline" fill="#FFFFFF" width="62.3" height="94.3"/>
</g>
<g id="combined">
	<g id="spin">
		<g>
			<g>
				<polygon points="185.7,185.7 435.8,252.7 469.8,125.9 0,0 125.9,469.8 252.7,435.8 				"/>
				<polygon points="812.8,353.7 629.7,536.9 722.5,629.7 1066.5,285.8 596.7,159.9 562.7,286.7 				"/>
				<polygon points="353.7,812.8 286.7,562.7 159.9,596.7 285.8,1066.5 629.7,722.5 536.8,629.7 				"/>
			</g>
			<circle cx="446.3" cy="446.3" r="93.4"/>
		</g>
	</g>
</g>
</svg>
