<?xml version="1.0" encoding="utf-8"?>
<!-- Generator: Adobe Illustrator 18.0.0, SVG Export Plug-In . SVG Version: 6.00 Build 0)  -->
<!DOCTYPE svg PUBLIC "-//W3C//DTD SVG 1.1//EN" "http://www.w3.org/Graphics/SVG/1.1/DTD/svg11.dtd">
<svg version="1.1" id="Layer_1" xmlns="http://www.w3.org/2000/svg" xmlns:xlink="http://www.w3.org/1999/xlink" x="0px" y="0px"
	 viewBox="0 0 620.6 148.7" enable-background="new 0 0 620.6 148.7" xml:space="preserve">
<g>
	<g>
		<path stroke="#000000" stroke-width="2" stroke-miterlimit="10" d="M183.7,87.3v29.4h-13.4V34.1h31.4c18.7,0,28,8.8,28,26.3
			c0,11.7-4.5,19.7-13.5,23.9l13.6,32.5H215l-11.9-29.4H183.7z M215.9,60.5c0-9.9-4.7-14.8-14.2-14.8h-18v30h18.2
			c4.8,0,8.4-1.4,10.6-4.2C214.7,68.8,215.9,65.1,215.9,60.5z"/>
		<path stroke="#000000" stroke-width="2" stroke-miterlimit="10" d="M279.5,105.9l3.4-0.4l0.2,9.8c-9.2,1.9-17.3,2.8-24.4,2.8
			c-8.9,0-15.3-2.5-19.2-7.4c-3.9-4.9-5.9-12.7-5.9-23.5c0-21.4,8.7-32.1,26.2-32.1c16.9,0,25.3,9.2,25.3,27.6l-0.8,9.4h-37.4
			c0.1,5,1.2,8.6,3.3,11c2.1,2.3,6,3.5,11.7,3.5C267.6,106.6,273.5,106.4,279.5,105.9z M272.3,82c0-6-0.9-10.1-2.8-12.5
			c-1.9-2.4-5.1-3.6-9.6-3.6c-4.5,0-7.8,1.2-9.8,3.7c-2.1,2.5-3.1,6.6-3.2,12.3H272.3z"/>
		<path stroke="#000000" stroke-width="2" stroke-miterlimit="10" d="M311.2,67.7v49.1h-13V67.7h-7V56.4h7v-3.9
			c0-8.6,1.2-14.5,3.7-17.7c2.5-3.2,6.9-4.8,13.3-4.8l13,1.2L328.1,42c-3.9-0.2-7.2-0.2-9.8-0.2c-2.6,0-4.4,0.8-5.5,2.4
			c-1,1.6-1.6,4.4-1.6,8.6v3.7h15.9v11.2H311.2z"/>
		<path stroke="#000000" stroke-width="2" stroke-miterlimit="10" d="M335.6,116.8V56.4h13v7.2c6.8-4.4,13.7-7.3,20.5-8.6v13.2
			c-6.9,1.4-12.8,3.1-17.7,5.3l-2.7,1.1v42.1H335.6z"/>
		<path stroke="#000000" stroke-width="2" stroke-miterlimit="10" d="M422.2,75v27.5c0.1,1.8,0.5,3.1,1.4,3.9
			c0.8,0.8,2.2,1.4,3.9,1.6l-0.4,10c-6.9,0-12.3-1.5-16-4.5c-6.4,3-12.9,4.5-19.4,4.5c-12,0-18-6.4-18-19.2c0-6.1,1.6-10.5,4.9-13.3
			c3.3-2.7,8.3-4.4,15-4.9l15.6-1.3V75c0-3.2-0.7-5.5-2.1-6.8c-1.4-1.3-3.5-1.9-6.2-1.9c-5.1,0-11.6,0.3-19.3,1l-3.9,0.2l-0.5-9.3
			c8.8-2.1,16.8-3.1,24.2-3.1c7.4,0,12.7,1.6,15.9,4.8C420.6,63.1,422.2,68.1,422.2,75z M395.2,90c-5.6,0.5-8.3,3.5-8.3,9
			c0,5.5,2.5,8.3,7.4,8.3c4,0,8.3-0.6,12.8-1.9l2.2-0.7v-16L395.2,90z"/>
		<path stroke="#000000" stroke-width="2" stroke-miterlimit="10" d="M458.1,55.1c4.3,0,9.3,0.6,15.1,1.7l3,0.6l-0.5,10.4
			c-6.4-0.6-11.1-1-14.1-1c-6.1,0-10.2,1.4-12.3,4.1c-2.1,2.7-3.1,7.9-3.1,15.4c0,7.6,1,12.8,3,15.7c2,2.9,6.2,4.3,12.5,4.3l14.1-1
			l0.4,10.5c-8.1,1.4-14.2,2.2-18.3,2.2c-9.2,0-15.6-2.5-19.4-7.4c-3.7-4.9-5.6-13-5.6-24.3c0-11.3,2-19.3,5.9-24.1
			C442.7,57.5,449.1,55.1,458.1,55.1z"/>
		<path stroke="#000000" stroke-width="2" stroke-miterlimit="10" d="M521.4,67.7h-16.6v26.5c0,4.9,0.4,8.2,1.1,9.8
			c0.7,1.6,2.6,2.4,5.6,2.4l9.9-0.4l0.6,10.5c-5.4,1-9.5,1.6-12.3,1.6c-6.8,0-11.5-1.6-14.1-4.7c-2.5-3.1-3.8-9-3.8-17.7v-28H484
			V56.4h7.7V39h13v17.5h16.6V67.7z"/>
		<path stroke="#000000" stroke-width="2" stroke-miterlimit="10" d="M572.6,105.9l3.4-0.4l0.2,9.8c-9.2,1.9-17.3,2.8-24.4,2.8
			c-8.9,0-15.3-2.5-19.2-7.4c-3.9-4.9-5.9-12.7-5.9-23.5c0-21.4,8.7-32.1,26.2-32.1c16.9,0,25.3,9.2,25.3,27.6l-0.8,9.4h-37.4
			c0.1,5,1.2,8.6,3.3,11c2.1,2.3,6,3.5,11.7,3.5C560.7,106.6,566.6,106.4,572.6,105.9z M565.4,82c0-6-0.9-10.1-2.8-12.5
			c-1.9-2.4-5.1-3.6-9.6-3.6c-4.5,0-7.8,1.2-9.8,3.7c-2.1,2.5-3.1,6.6-3.2,12.3H565.4z"/>
		<path stroke="#000000" stroke-width="2" stroke-miterlimit="10" d="M586.1,116.8V56.4h13v7.2c6.8-4.4,13.7-7.3,20.5-8.6v13.2
			c-6.9,1.4-12.8,3.1-17.7,5.3l-2.7,1.1v42.1H586.1z"/>
	</g>
	<g>
		<g>
			<polygon stroke="#000000" stroke-width="3" stroke-miterlimit="10" points="25.3,28.2 58,39 63.5,22.4 2,2.2 15.3,65.5 
				32.4,61.9 			"/>
			<polygon stroke="#000000" stroke-width="3" stroke-miterlimit="10" points="107.3,55.1 81.7,78.1 93.3,91.1 141.5,47.9 80,27.8 
				74.6,44.4 			"/>
			<polygon stroke="#000000" stroke-width="3" stroke-miterlimit="10" points="43,112.7 36,79 18.9,82.6 32.2,145.9 80.3,102.7 
				68.7,89.7 			"/>
		</g>
		<circle stroke="#000000" stroke-width="3" stroke-miterlimit="10" cx="58" cy="64.7" r="12.1"/>
	</g>
</g>
</svg>
