<?xml version="1.0" encoding="utf-8"?>
<!-- Generator: Adobe Illustrator 18.0.0, SVG Export Plug-In . SVG Version: 6.00 Build 0)  -->
<!DOCTYPE svg PUBLIC "-//W3C//DTD SVG 1.1//EN" "http://www.w3.org/Graphics/SVG/1.1/DTD/svg11.dtd">
<svg version="1.1" xmlns="http://www.w3.org/2000/svg" xmlns:xlink="http://www.w3.org/1999/xlink" x="0px" y="0px"
	 viewBox="0 0 5453.6 1066.5" enable-background="new 0 0 5453.6 1066.5" xml:space="preserve">
<g id="mockup" display="none">
	<polygon display="inline" points="-248.2,-200.3 -136.2,240.8 171.8,-25.2 	"/>
	<polygon display="inline" fill="#FFFFFF" points="-156.7,-94.3 -99.5,131.2 58,-4.8 	"/>
	
		<rect x="-180.3" y="-10.5" transform="matrix(-0.2235 -0.9747 0.9747 -0.2235 -218.2844 -100.5851)" display="inline" fill="#FFFFFF" width="62.3" height="94.3"/>
	
		<rect x="-54.5" y="-128.8" transform="matrix(-0.9289 -0.3702 0.3702 -0.9289 -14.858 -166.0408)" display="inline" fill="#FFFFFF" width="62.3" height="94.3"/>
	
		<rect x="-34.7" y="35.9" transform="matrix(-0.7522 0.6589 -0.6589 -0.7522 48.5709 147.9491)" display="inline" fill="#FFFFFF" width="62.3" height="94.3"/>
</g>
<g id="combined">
	<g id="spin">
		<g>
			<g>
				<polygon points="185.7,185.7 435.8,252.7 469.8,125.9 0,0 125.9,469.8 252.7,435.8 				"/>
				<polygon points="812.8,353.7 629.7,536.9 722.5,629.7 1066.5,285.8 596.7,159.9 562.7,286.7 				"/>
				<polygon points="353.7,812.8 286.7,562.7 159.9,596.7 285.8,1066.5 629.7,722.5 536.8,629.7 				"/>
			</g>
			<circle cx="446.3" cy="446.3" r="93.4"/>
		</g>
	</g>
	<g>
		<path stroke="#000000" stroke-width="6" stroke-miterlimit="10" d="M1469.8,672.3v268.8h-122.3V186.4h286.4
			c170.4,0,255.6,80.1,255.6,240.2c0,107.3-41.1,180-123.4,218.1l124.5,296.4h-134.4l-109.1-268.8H1469.8z M1763.9,427.7
			c0-90.3-43.3-135.5-130-135.5h-164.2v274.3h166.4c44.1,0,76.4-12.7,97-38C1753.6,503.1,1763.9,469.5,1763.9,427.7z"/>
		<path stroke="#000000" stroke-width="6" stroke-miterlimit="10" d="M2345.1,841.9l30.8-3.3l2.2,89.2
			c-83.7,16.9-157.9,25.3-222.5,25.3c-81.5,0-140.1-22.4-175.7-67.2c-35.6-44.8-53.4-116.4-53.4-214.8
			c0-195.4,79.7-293.1,239.1-293.1c154.2,0,231.4,84.1,231.4,252.3l-7.7,85.9h-341.5c0.7,45.5,10.6,79,29.7,100.3
			c19.1,21.3,54.7,31.9,106.9,31.9C2236.4,848.5,2290,846.3,2345.1,841.9z M2279,623.8c0-54.3-8.6-92.4-25.9-114
			c-17.3-21.7-46.5-32.5-87.6-32.5c-41.1,0-71.1,11.4-89.8,34.2c-18.7,22.8-28.5,60.2-29.2,112.4H2279z"/>
		<path stroke="#000000" stroke-width="6" stroke-miterlimit="10" d="M2634.8,492.7v448.4h-119V492.7h-63.9V390.2h63.9V355
			c0-78.6,11.4-132.6,34.2-162c22.8-29.4,63.2-44.1,121.2-44.1l119,11l-1.1,98.1c-36-1.5-65.9-2.2-89.8-2.2
			c-23.9,0-40.6,7.2-50.1,21.5c-9.6,14.3-14.3,40.6-14.3,78.8v34.1h145.4v102.5H2634.8z"/>
		<path stroke="#000000" stroke-width="6" stroke-miterlimit="10" d="M2857.2,941.1V390.2h119v66.1c62.4-40.4,124.9-66.5,187.3-78.2
			v120.1c-63.2,12.5-117.2,28.6-161.9,48.5l-24.2,9.9v384.5H2857.2z"/>
		<path stroke="#000000" stroke-width="6" stroke-miterlimit="10" d="M3648.1,559.9v251.2c0.7,16.2,5,28.1,12.7,35.8
			c7.7,7.7,19.6,12.7,35.8,14.9l-3.3,91.4c-63.2,0-112-13.6-146.5-40.8c-58.8,27.2-117.9,40.8-177.4,40.8
			c-109.4,0-164.2-58.4-164.2-175.2c0-55.8,14.9-96.2,44.6-121.2c29.7-25,75.5-40,137.2-45.2l142.1-12.1v-39.7
			c0-29.4-6.4-49.9-19.3-61.7c-12.9-11.7-31.8-17.6-56.7-17.6c-47,0-105.8,2.9-176.3,8.8l-35.3,2.2l-4.4-84.8
			c80.1-19.1,153.7-28.6,220.9-28.6s115.7,14.5,145.4,43.5C3633.2,450.6,3648.1,496.7,3648.1,559.9z M3401.3,696.5
			c-50.7,4.4-76,32-76,82.6c0,50.7,22.4,76,67.2,76c36.7,0,75.6-5.9,116.8-17.6l19.8-6.6V684.4L3401.3,696.5z"/>
		<path stroke="#000000" stroke-width="6" stroke-miterlimit="10" d="M3975.5,378.1c38.9,0,84.8,5.2,137.7,15.4l27.5,5.5l-4.4,94.8
			c-58-5.9-101-8.8-128.9-8.8c-55.8,0-93.3,12.5-112.4,37.5c-19.1,25-28.6,72-28.6,141c0,69,9.2,116.8,27.5,143.2
			c18.4,26.4,56.5,39.7,114.6,39.7l128.9-8.8l3.3,95.8c-74.2,13.2-130,19.8-167.5,19.8c-83.7,0-142.7-22.6-176.8-67.8
			c-34.1-45.2-51.2-119.2-51.2-222c0-102.8,18-176.1,54-219.8C3835.2,400,3893.9,378.1,3975.5,378.1z"/>
		<path stroke="#000000" stroke-width="6" stroke-miterlimit="10" d="M4553.4,492.7h-152v242.4c0,44.8,3.3,74.6,9.9,89.2
			c6.6,14.7,23.5,22,50.7,22l90.3-3.3l5.5,95.8c-49.2,9.5-86.7,14.3-112.4,14.3c-62.4,0-105.2-14.3-128.3-43
			c-23.1-28.6-34.7-82.6-34.7-161.9V492.7h-70.5V390.2h70.5V230.5h119v159.8h152V492.7z"/>
		<path stroke="#000000" stroke-width="6" stroke-miterlimit="10" d="M5021.7,841.9l30.8-3.3l2.2,89.2
			c-83.7,16.9-157.9,25.3-222.5,25.3c-81.5,0-140.1-22.4-175.7-67.2c-35.6-44.8-53.4-116.4-53.4-214.8
			c0-195.4,79.7-293.1,239.1-293.1c154.2,0,231.4,84.1,231.4,252.3l-7.7,85.9h-341.5c0.7,45.5,10.6,79,29.7,100.3
			c19.1,21.3,54.7,31.9,106.9,31.9C4913,848.5,4966.6,846.3,5021.7,841.9z M4955.6,623.8c0-54.3-8.6-92.4-25.9-114
			c-17.3-21.7-46.5-32.5-87.6-32.5c-41.1,0-71.1,11.4-89.8,34.2c-18.7,22.8-28.5,60.2-29.2,112.4H4955.6z"/>
		<path stroke="#000000" stroke-width="6" stroke-miterlimit="10" d="M5144.4,941.1V390.2h119v66.1c62.4-40.4,124.9-66.5,187.3-78.2
			v120.1c-63.2,12.5-117.2,28.6-162,48.5l-24.2,9.9v384.5H5144.4z"/>
	</g>
</g>
</svg>
